<?xml version="1.0" standalone="no"?>
<svg xmlns="http://www.w3.org/2000/svg" width="24" height="24"><rect width="24" height="24" opacity="0"></rect><g mask="url(#hms_mask_0)"><path d="M18.72 3.1Q18.36 2.47 17.72 2.1Q17.09 1.73 16.34 1.73L7.66 1.73Q6.91 1.73 6.28 2.1Q5.64 2.47 5.28 3.1L0.91 10.63Q0.55 11.26 0.55 12Q0.55 12.74 0.91 13.39L5.28 20.88Q5.64 21.53 6.28 21.9Q6.91 22.27 7.66 22.27L16.34 22.27Q17.09 22.27 17.72 21.9Q18.36 21.53 18.72 20.88L23.06 13.37Q23.42 12.74 23.42 12Q23.42 11.26 23.06 10.61L18.72 3.1Z" fill="rgba(64,158,255,1)"></path></g><defs><mask id="hms_mask_0"><rect width="24" height="24" fill="#ffffff"></rect><g><path d="M15.89 7.32Q16.2 7.32 16.42 7.55Q16.63 7.78 16.63 8.11L16.63 16.66Q16.63 17.62 15.98 18.3Q15.34 18.98 14.42 18.98L10.44 18.98Q10.06 18.98 9.7 18.82Q9.34 18.65 9.07 18.36L4.8 14.4Q4.66 14.23 4.58 13.94Q4.51 13.66 4.78 13.37Q4.97 13.13 5.3 13.16Q5.64 13.2 5.76 13.32L8.02 14.64Q8.21 14.74 8.4 14.66Q8.59 14.59 8.59 14.23L8.59 7.32Q8.59 7.01 8.81 6.77Q9.02 6.53 9.31 6.53Q9.62 6.53 9.84 6.76Q10.06 6.98 10.06 7.32L10.06 11.21Q10.06 11.38 10.15 11.48Q10.25 11.59 10.42 11.59Q10.58 11.59 10.68 11.48Q10.78 11.38 10.78 11.21L10.78 5.76Q10.78 5.45 10.99 5.22Q11.21 4.99 11.52 4.99Q11.81 4.99 12.02 5.22Q12.24 5.45 12.24 5.76L12.24 11.21Q12.24 11.38 12.34 11.48Q12.43 11.59 12.6 11.59Q12.77 11.59 12.86 11.48Q12.96 11.38 12.96 11.21L12.96 6.53Q12.96 6.22 13.18 5.99Q13.39 5.76 13.7 5.76Q14.02 5.76 14.22 5.99Q14.42 6.22 14.42 6.53L14.42 11.21Q14.42 11.38 14.52 11.48Q14.62 11.59 14.78 11.59Q14.95 11.59 15.06 11.48Q15.17 11.38 15.17 11.21L15.17 8.11Q15.17 7.78 15.37 7.55Q15.58 7.32 15.89 7.32Z" fill="#000000"></path></g></mask></defs></svg>