<?xml version="1.0" standalone="no"?>
<svg xmlns="http://www.w3.org/2000/svg" width="24" height="24"><rect width="24" height="24" opacity="0"></rect><g><path d="M4.27 18.1Q5.06 17.9 5.66 17.7Q6.26 17.5 6.84 17.26Q7.15 17.11 7.43 17.03Q7.7 16.94 7.9 16.94Q8.28 16.97 8.66 16.99Q9.53 17.09 10.06 17.09Q12.31 17.09 14.23 16.1Q16.15 15.12 17.27 13.43Q18.38 11.74 18.38 9.72Q18.38 7.7 17.27 6.01Q16.15 4.32 14.23 3.34Q12.31 2.35 10.06 2.35Q7.8 2.35 5.88 3.35Q3.96 4.34 2.84 6.04Q1.73 7.73 1.73 9.72Q1.73 11.3 2.44 12.71Q3.14 14.11 4.42 15.12Q4.8 15.5 4.63 16.14Q4.46 16.78 4.03 17.62L4.01 17.69Q3.94 17.83 4.02 17.96Q4.1 18.1 4.27 18.1Z" fill="rgba(64,158,255,1)"></path><path d="M19.66 9.17Q19.66 12.19 18.17 14.35Q16.68 16.51 14.26 17.53Q11.83 18.55 9.07 18.34Q10.13 19.46 11.62 20.1Q13.1 20.74 14.81 20.74Q15.74 20.74 16.63 20.52Q16.8 20.5 17 20.57Q17.21 20.64 17.52 20.81Q18.05 21.1 18.6 21.3Q19.15 21.5 19.94 21.62Q20.09 21.65 20.18 21.53Q20.28 21.41 20.21 21.29L20.16 21.19Q19.92 20.71 19.78 20.34Q19.63 19.97 19.62 19.61Q19.61 19.25 19.85 19.01Q21.48 17.64 22.02 15.84Q22.56 14.04 21.95 12.25Q21.34 10.46 19.66 9.17Z" fill="rgba(64,158,255,1)"></path></g></svg>